<svg xmlns="http://www.w3.org/2000/svg" style="display: none;"><symbol id="food-1" viewBox="0 0 512.003 512.003"><title>food-1</title><path style="fill:#FF4C1C;" d="M221.155,24.442c-7.403-7.402-18.816-8.347-27.244-2.836c-2.063-9.855-10.802-17.259-21.27-17.259 s-19.207,7.403-21.27,17.259c-8.428-5.51-19.842-4.566-27.244,2.836c-8.488,8.489-8.488,22.25,0,30.737 c2.014,2.014,4.326,3.545,6.793,4.602h83.443c2.467-1.059,4.779-2.589,6.793-4.602C229.642,46.692,229.642,32.931,221.155,24.442z"/><path style="fill:#FFDBA5;" d="M381.708,132.486l-36.283,85.159L228.57,178.158V97.41c0-30.889-25.041-55.931-55.931-55.931 S116.708,66.52,116.708,97.41v43.226l-32.541,95.656c0,79.002,56.72,144.747,131.656,158.759c0,16.489,13.356,29.845,29.832,29.845 s29.832-13.356,29.832-29.832c72.459-13.515,127.893-75.398,131.527-150.879l0.13-0.135v-86.128 C407.144,143.872,395.756,132.486,381.708,132.486z"/><path style="fill:#FFC778;" d="M170.879,193.083c-5.052,11.399-7.881,24.003-7.881,37.275c0,50.866,41.235,92.102,92.101,92.102 c43.478,0,79.895-30.137,89.564-70.653L170.879,193.083z"/><path d="M426.53,213.34c4.802,0,8.696-3.893,8.696-8.696s-3.893-8.696-8.696-8.696h-9.384v-15.151h9.384 c4.802,0,8.696-3.893,8.696-8.696s-3.893-8.696-8.696-8.696h-9.384v-1.139c0-18.819-15.311-34.13-34.131-34.13 c-3.486,0-6.634,2.081-8,5.287l-33.128,77.752l-103.316-34.913v-74.507c0-13.09-3.923-25.276-10.64-35.465 c0.223-0.209,0.461-0.399,0.678-0.616c11.865-11.865,11.865-31.169,0-43.033c-7.629-7.629-18.614-10.461-28.69-8.043 C194.503,5.767,184.736,0,173.947,0c-10.789,0-20.557,5.767-25.974,14.598c-10.076-2.413-21.061,0.416-28.69,8.044 c-11.865,11.865-11.865,31.169,0,43.033c0.217,0.217,0.454,0.408,0.677,0.616c-6.716,10.19-10.639,22.375-10.639,35.465v12.836 H88.087c-4.802,0-8.696,3.893-8.696,8.696c0,4.802,3.893,8.696,8.696,8.696h29.93c4.802,0,8.696-3.893,8.696-8.696v-21.53 c0-26.045,21.19-47.235,47.235-47.235s47.234,21.19,47.234,47.235v80.748c0,3.729,2.378,7.043,5.912,8.238l116.855,39.488 c4.304,1.452,9.002-0.651,10.784-4.829l33.654-78.988c6.604,2.242,11.369,8.503,11.369,15.855v1.139h-5.406 c-4.802,0-8.696,3.893-8.696,8.696s3.893,8.696,8.696,8.696h5.406v15.151h-5.406c-4.802,0-8.696,3.893-8.696,8.696 s3.893,8.696,8.696,8.696h5.406v15.151h-5.406c-4.802,0-8.696,3.893-8.696,8.696s3.893,8.696,8.696,8.696h5.406v1.147 c-0.063,0.357-0.103,0.718-0.121,1.084c-3.418,71.02-54.589,129.721-124.436,142.75c-4.116,0.768-7.101,4.361-7.101,8.549 c0,11.654-9.481,21.136-21.136,21.136c-11.655,0-21.137-9.481-21.137-21.15c0-4.186-2.983-7.777-7.098-8.547 c-71.708-13.407-123.88-75.859-124.553-148.792l32.072-94.274c0.903-2.655,0.471-5.583-1.162-7.863s-4.265-3.633-7.069-3.633 h-16.051c-4.802,0-8.696,3.893-8.696,8.696c0,4.802,3.893,8.696,8.696,8.696h3.906L77.241,237.84 c-0.307,0.902-0.463,1.848-0.463,2.801c0,79.715,55.262,148.492,132.332,165.978c2.846,14.976,14.389,26.908,29.156,30.329v66.36 c0,4.802,3.893,8.696,8.696,8.696s8.696-3.893,8.696-8.696v-66.359c14.764-3.42,26.304-15.345,29.153-30.317 c34.667-7.893,66.458-26.79,90.088-53.681c25.014-28.465,39.911-64.869,42.036-102.647c0.139-0.621,0.211-1.259,0.211-1.904v-2.514 h9.384c4.802,0,8.696-3.893,8.696-8.696c0-4.802-3.893-8.696-8.696-8.696h-9.384v-15.151h9.384V213.34z M131.397,53.177 c-4.89-5.098-4.836-13.218,0.183-18.237c4.34-4.341,11.212-5.06,16.338-1.708c2.404,1.572,5.433,1.855,8.086,0.755 c2.654-1.1,4.595-3.44,5.184-6.252c1.255-5.995,6.622-10.346,12.76-10.346s11.504,4.35,12.759,10.344 c0.589,2.813,2.529,5.153,5.184,6.252c2.655,1.1,5.681,0.817,8.086-0.755c5.125-3.352,11.997-2.633,16.338,1.707 c5.018,5.018,5.073,13.139,0.183,18.237c-11.377-9.977-26.264-16.045-42.55-16.045S142.774,43.2,131.397,53.177z"/><path d="M188.608,101.502c0-8.085-6.577-14.662-14.662-14.662s-14.662,6.577-14.662,14.662s6.577,14.662,14.662,14.662 C182.03,116.164,188.608,109.587,188.608,101.502z M171.217,101.502c0-1.505,1.224-2.729,2.729-2.729 c1.504,0,2.729,1.224,2.729,2.729c0,1.504-1.224,2.729-2.729,2.729C172.441,104.231,171.217,103.008,171.217,101.502z"/><path d="M155.609,233.168c0,56.428,45.907,102.335,102.334,102.335c6.471,0,12.948-0.609,19.252-1.811 c4.717-0.899,7.813-5.452,6.915-10.168c-0.899-4.717-5.458-7.811-10.169-6.915c-5.234,0.997-10.616,1.503-15.998,1.503 c-46.838,0-84.943-38.106-84.943-84.944c0-4.802-3.893-8.696-8.696-8.696S155.609,228.366,155.609,233.168z"/></symbol><symbol id="drink" viewBox="0 0 41 41"><title>drink</title><path style="fill:#231F20;" d="M14.078,27.051c-0.035,0-0.07-0.001-0.105-0.002c-0.802-0.027-1.544-0.364-2.09-0.948l-3.205-3.43 c-1.13-1.209-1.065-3.111,0.144-4.24l3.43-3.204c1.208-1.13,3.11-1.064,4.24,0.144l3.205,3.43c1.13,1.209,1.065,3.111-0.144,4.24 l-3.43,3.204C15.564,26.767,14.842,27.051,14.078,27.051z M14.299,16.419c-0.245,0-0.49,0.089-0.683,0.269l-3.43,3.204 c-0.403,0.377-0.424,1.011-0.048,1.414l3.205,3.43c0.181,0.193,0.429,0.306,0.697,0.314c0.27,0.008,0.522-0.086,0.716-0.267 l3.431-3.204c0.403-0.377,0.424-1.011,0.048-1.414l-3.205-3.43C14.833,16.525,14.567,16.419,14.299,16.419z M18.87,22.31h0.01 H18.87z"/><g> <ellipse style="fill:#DAE7EF;" cx="20.5" cy="2.5" rx="17" ry="2"/> <path style="fill:#BBD7EA;" d="M20.5,5C17.578,5,3,4.88,3,2.5S17.578,0,20.5,0S38,0.12,38,2.5S23.422,5,20.5,5z M4.121,2.5 C5.247,3.165,11.159,4,20.5,4s15.253-0.835,16.379-1.5C35.753,1.835,29.841,1,20.5,1S5.247,1.835,4.121,2.5z M37.034,2.623h0.01 H37.034z"/> </g><g> <path style="fill:#DAE7EF;" d="M20.5,4.5c-9.389,0-17-0.343-17-2l3,36c0,1.104,7.925,2,14,2s14-0.896,14-2l3-36 C37.5,4.157,29.889,4.5,20.5,4.5z"/> <path style="fill:#BBD7EA;" d="M20.5,41c-3.053,0-6.546-0.221-9.344-0.59C6,39.729,6,38.93,6,38.5L3.013,2.681 C3.004,2.621,3,2.562,3,2.5C3,2.232,3.211,2.012,3.479,2c0.259-0.006,0.497,0.191,0.519,0.458l0.007,0.088 C4.12,3.019,6.095,4,20.5,4s16.381-0.981,16.494-1.454l0.008-0.088C37.024,2.191,37.263,2.004,37.521,2 C37.789,2.012,38,2.232,38,2.5c0,0.062-0.004,0.121-0.014,0.181l-2.988,35.861C35,38.93,35,39.729,29.844,40.41 C27.046,40.779,23.553,41,20.5,41z M6.994,38.403C7.743,39.116,14.139,40,20.5,40c6.366,0,12.768-0.886,13.508-1.598L36.892,3.78 C35.064,4.566,30.567,5,20.5,5S5.936,4.566,4.108,3.78L6.994,38.403z M34.004,38.455C34.001,38.469,34,38.483,34,38.5 L34.004,38.455z M6.997,38.443l0.001,0.015C6.999,38.454,6.998,38.448,6.997,38.443z"/> </g><path style="fill:#FFFFFF;" d="M29.593,19.825l-3.43,3.205c-0.804,0.751-2.076,0.708-2.827-0.096l-3.205-3.43 c-0.751-0.804-0.708-2.076,0.096-2.827l3.43-3.205c0.804-0.751,2.076-0.708,2.827,0.096l3.205,3.43 C30.44,17.802,30.397,19.074,29.593,19.825z"/><path style="fill:#CC6329;" d="M20.582,19.5c-8.046,0-14.578-0.703-15.636-1.614c-0.054-0.015-0.116-0.03-0.167-0.045l1.338,16.053 c2.469,0.868,9.065,1.493,14.384,1.493s11.914-0.625,14.384-1.493l1.338-16.053c-0.042,0.012-0.092,0.024-0.135,0.037 C35.08,18.793,28.654,19.5,20.582,19.5z"/><g> <path style="fill:#AD5123;" d="M28.782,16.03l0.907,0.971c0.548,0.586,0.668,1.421,0.384,2.121 c3.766-0.342,6.167-0.883,6.167-1.493C36.239,16.951,33.285,16.359,28.782,16.03z"/> </g><g> <path style="fill:#AD5123;" d="M12.901,15.99c-4.861,0.32-8.123,0.933-8.123,1.639c0,0.535,1.888,1.016,4.916,1.357L12.901,15.99z "/> <path style="fill:#AD5123;" d="M15.53,15.854c0.08,0.063,0.16,0.125,0.231,0.202l3.205,3.43c0.001,0.001,0.002,0.003,0.003,0.004 c0.383,0.005,0.766,0.009,1.158,0.011c-0.745-0.804-0.7-2.071,0.101-2.82l0.986-0.921c-0.211-0.001-0.418-0.004-0.631-0.004 C18.809,15.755,17.115,15.791,15.53,15.854z"/> </g><path style="fill:#FFFFFF;" d="M18.869,22.309l-3.43,3.205c-0.804,0.751-2.076,0.708-2.827-0.096l-3.205-3.43 c-0.751-0.804-0.708-2.076,0.096-2.827l3.43-3.205c0.804-0.751,2.076-0.708,2.827,0.096l3.205,3.43 C19.716,20.286,19.673,21.558,18.869,22.309z"/><g> <path style="fill:#E28759;" d="M9.739,18.941l-0.235,0.22c-0.804,0.751-0.847,2.023-0.096,2.827l3.205,3.43 c0.751,0.804,2.023,0.847,2.827,0.096l3.43-3.205c0.802-0.749,0.846-2.017,0.1-2.821C15.406,19.441,12.203,19.241,9.739,18.941z"/> </g><path style="fill:#E28759;" d="M26.498,28.519l-3.43,3.205c-0.804,0.751-2.076,0.708-2.827-0.096l-3.205-3.43 c-0.751-0.804-0.708-2.076,0.096-2.827l3.43-3.205c0.804-0.751,2.076-0.708,2.827,0.096l3.205,3.43 C27.345,26.496,27.301,27.769,26.498,28.519z"/></symbol><symbol id="food" viewBox="0 0 512 512"><title>food</title><rect x="381.942" y="370.418" style="fill:#40A559;" width="118.534" height="133.35"/><path style="fill:#64C37D;" d="M500.476,370.418v17.648c-26.944,43.375-68.87,76.476-118.534,92.083V370.418H500.476z"/><path style="fill:#C6C5CA;" d="M428.039,271.091H43.901c0-7.156,0.384-14.213,1.152-21.16c1.251-11.458,3.523-22.609,6.695-33.365 C75.247,137.049,148.837,79.023,235.97,79.023c32.432,0,62.988,8.045,89.789,22.236c2.239,1.185,4.445,2.415,6.618,3.688 C389.581,138.202,428.039,200.146,428.039,271.091z"/><path style="fill:#E0E0E2;" d="M332.377,104.946c-59.157,87.66-159.406,145.292-273.111,145.292c-4.763,0-9.494-0.099-14.213-0.307 c1.251-11.458,3.523-22.609,6.695-33.365C75.247,137.049,148.837,79.023,235.97,79.023c32.432,0,62.988,8.045,89.789,22.236 C327.998,102.444,330.204,103.673,332.377,104.946z"/><polygon style="fill:#ACABB1;" points="200.849,304.566 200.849,419.807 233.775,408.283 233.775,304.566 "/><polygon style="fill:#D8D7DA;" points="191.026,422.65 192.615,422.073 217.467,412.759 172.862,305.986 134.309,321.029 169.082,399.34 "/><g> <rect x="423.1" y="460.965" style="fill:#FFFFFF;" width="16.463" height="16.463"/> <path style="fill:#FFFFFF;" d="M103.168,236.52c-0.001-6.546,0.62-13.152,1.849-19.633l16.175,3.065 c-1.037,5.472-1.563,11.044-1.562,16.564L103.168,236.52z M125.212,205.396l-15.466-5.644 c16.895-46.303,64.789-81.219,111.407-81.219v16.463C181.102,134.997,139.856,165.261,125.212,205.396z"/> </g><polygon style="fill:#E0E0E2;" points="381.942,386.881 381.942,477.428 176.154,477.428 60.913,330.907 87.605,312.797 191.026,422.65 266.975,395.113 266.975,304.566 299.627,304.566 344.077,386.881 "/><path style="fill:#FFFFFF;" d="M361.484,386.881c-26.901,42.486-68.19,74.951-117.019,90.547h-68.311L60.913,330.907l26.692-18.109 L191.026,422.65l75.949-27.537v-90.547h32.652l44.45,82.315H361.484z"/><path d="M500.476,362.186H373.711v16.463h-24.723l-44.45-82.315h-45.794v93.006l-16.737,6.068v-99.074h-49.389v35.588 l-15.259-36.526l-53.88,21.023l16.724,40.236l-51.413-54.608l-39.808,27.007l123.174,156.605h201.555V512h126.765v-16.463H390.174 v-9.878V378.65h110.302V362.186z M209.08,370.418v-57.621h16.463v88.58l-3.396,1.231L208.7,370.418L209.08,370.418L209.08,370.418z M145.139,325.64l23.226-9.062l38.287,91.649l-13.344,4.838l-21.185-22.502L145.139,325.64z M180.153,469.196L72.843,332.759 l13.578-9.212l71.655,76.109l0.599,1.441l0.544-0.226l29.524,31.359l86.463-31.347v-88.086h19.51l44.45,82.315h34.545v74.084 H180.153z"/><rect x="60.913" y="65.852" width="16.463" height="16.463"/><rect x="60.913" y="98.778" width="16.463" height="16.463"/><rect x="60.913" y="131.704" width="16.463" height="16.463"/><rect x="60.913" y="32.926" width="16.463" height="16.463"/><rect x="93.839" y="16.463" width="16.463" height="16.463"/><rect x="93.839" y="82.315" width="16.463" height="16.463"/><rect x="93.839" y="49.389" width="16.463" height="16.463"/><rect x="126.765" y="32.926" width="16.463" height="16.463"/><rect x="126.765" width="16.463" height="16.463"/><path d="M465.904,279.323V262.86h-29.267c-3.614-88.934-65.482-163.1-148.39-185.283c-3.16-25.744-25.145-45.749-51.728-45.749 s-48.568,20.005-51.728,45.749C101.884,99.759,40.015,173.925,36.401,262.86H11.524v16.463h24.695h400.6H465.904z M236.519,48.292 c16.109,0,29.751,10.736,34.164,25.427c-11.106-1.916-22.519-2.927-34.164-2.927c-11.645,0-23.058,1.011-34.164,2.927 C206.768,59.028,220.41,48.292,236.519,48.292z M52.864,262.86c4.322-97.562,85.046-175.606,183.655-175.606 s179.333,78.044,183.655,175.606H52.864z"/></symbol><symbol id="restaurant" viewBox="0 0 470 470"><title>restaurant</title><path style="fill:#B1786B;" d="M380,7.5h-30v455h30c16.5,0,30-13.5,30-30v-395C410,21,396.5,7.5,380,7.5z"/><path style="fill:#CB9385;" d="M331.733,235L380,37.5c0-16.5-13.5-30-30-30h-45l-70,21.097L165,7.5H90c-16.5,0-30,13.5-30,30v395 c0,16.5,13.5,30,30,30h260c16.5,0,30-13.5,30-30L331.733,235z"/><polygon style="fill:#CCECFF;" points="380,37.5 380,432.5 350,432.5 300,235 350,37.5 "/><polygon style="fill:#5389A9;" points="305,7.5 305,57.5 225,57.5 275,7.5 "/><rect x="165" y="7.5" style="fill:#66C6FE;" width="110" height="50"/><polygon style="fill:#FFFFFF;" points="90,37.5 90,432.5 290,432.5 350,432.5 350,37.5 "/><path style="fill:#99D9FF;" d="M300,218.005v97h-20c-11.05,0-20-8.95-20-20v-77c0-11.04,8.95-20,20-20 C291.05,198.005,300,206.965,300,218.005z"/><path style="fill:#99D9FF;" d="M230,246.005v12c0,16.57-13.43,30-30,30s-30-13.43-30-30v-12h30H230z"/><path d="M380,0H90C69.322,0,52.5,16.822,52.5,37.5v395c0,20.678,16.822,37.5,37.5,37.5h290c20.678,0,37.5-16.822,37.5-37.5v-395 C417.5,16.822,400.678,0,380,0z M172.5,45h125v17.5c0,4.136-3.364,7.5-7.5,7.5H180c-4.136,0-7.5-3.364-7.5-7.5V45z M297.5,30h-125 V15h125V30z M402.5,432.5c0,12.407-10.094,22.5-22.5,22.5H90c-12.407,0-22.5-10.093-22.5-22.5v-395C67.5,25.093,77.593,15,90,15 h67.5v47.5c0,12.407,10.093,22.5,22.5,22.5h110c12.406,0,22.5-10.093,22.5-22.5V15H380c12.406,0,22.5,10.093,22.5,22.5V432.5z"/><path d="M380,30h-45c-4.143,0-7.5,3.358-7.5,7.5s3.357,7.5,7.5,7.5h37.5v380h-275V45H135c4.142,0,7.5-3.358,7.5-7.5 S139.143,30,135,30H90c-4.142,0-7.5,3.358-7.5,7.5v395c0,4.142,3.358,7.5,7.5,7.5h290c4.143,0,7.5-3.358,7.5-7.5v-395 C387.5,33.358,384.143,30,380,30z"/><path d="M192.5,294.75v77.245c0,4.142,3.358,7.5,7.5,7.5s7.5-3.358,7.5-7.5V294.75c17.096-3.484,30-18.635,30-36.745v-60 c0-4.142-3.358-7.5-7.5-7.5s-7.5,3.358-7.5,7.5v40.5h-15v-40.5c0-4.142-3.358-7.5-7.5-7.5s-7.5,3.358-7.5,7.5v40.5h-15v-40.5 c0-4.142-3.358-7.5-7.5-7.5s-7.5,3.358-7.5,7.5v60C162.5,276.115,175.404,291.266,192.5,294.75z M222.5,253.505v4.5 c0,12.407-10.093,22.5-22.5,22.5s-22.5-10.093-22.5-22.5v-4.5H222.5z"/><path d="M300,379.495c4.143,0,7.5-3.358,7.5-7.5v-153.99c0-15.164-12.337-27.5-27.5-27.5s-27.5,12.336-27.5,27.5v77 c0,15.164,12.337,27.5,27.5,27.5h12.5v49.49C292.5,376.137,295.857,379.495,300,379.495z M280,307.505 c-6.893,0-12.5-5.607-12.5-12.5v-77c0-6.893,5.607-12.5,12.5-12.5s12.5,5.607,12.5,12.5v89.5H280z"/><path d="M170.002,165.505c1.819,0,3.643-0.658,5.084-1.988l16.585-15.305l16.577,15.304c2.873,2.652,7.3,2.652,10.174,0.001 l16.585-15.305l16.577,15.304c2.874,2.651,7.302,2.652,10.176,0l16.576-15.303l16.575,15.303c3.043,2.81,7.788,2.62,10.599-0.423 c2.81-3.043,2.62-7.788-0.423-10.598l-21.663-20c-2.875-2.652-7.303-2.653-10.176,0l-16.576,15.303l-16.576-15.303 c-2.872-2.651-7.3-2.652-10.174-0.001l-16.585,15.305l-16.577-15.304c-2.872-2.651-7.3-2.652-10.174-0.001l-21.673,20 c-3.044,2.809-3.234,7.554-0.425,10.598C165.967,164.693,167.981,165.505,170.002,165.505z"/></symbol><symbol id="location" viewBox="0 0 489.032 489.032"><title>location</title><path style="fill:#3C92CA;" d="M180.766,184.526c0-1.7,1.5-2.6,3.3-1.8c4.3,1.9,8.5,3.8,12.7,5.8c44,20,88,40,132,60 c1.1,0.5,2.2,1,2.2,2.5s-1.1,1.9-2.3,2.4c-18.4,7.4-36.7,14.7-55.1,22.1c-7.3,18.3-14.7,36.6-22,55c-0.5,1.1-0.9,2.3-2.4,2.3 c-1.6,0.1-2.1-1-2.7-2.2c-21.7-48-43.4-96-65-143.9C181.166,185.926,180.666,185.326,180.766,184.526z"/><path d="M231.166,95.826c5-0.4,8.7-4.9,8.2-9.8c-0.5-5-4.9-8.7-9.8-8.2c-5,0.4-8.7,4.9-8.2,9.8c0.4,4.7,4.4,8.3,9,8.3 C230.566,95.926,230.866,95.826,231.166,95.826z"/><path d="M242.466,412.026c5,0,9-4,9.1-9s-3.9-9.1-8.9-9.2s-9.1,3.9-9.2,8.9c-0.1,5,3.9,9.1,8.9,9.2l0,0 C242.366,412.026,242.366,412.026,242.466,412.026z"/><path d="M96.566,265.326c-0.7-5-5.3-8.4-10.3-7.7c-5,0.7-8.4,5.3-7.7,10.2c0.6,4.5,4.5,7.8,9,7.8c0.4,0,0.8,0,1.3-0.1 C93.866,274.926,97.266,270.326,96.566,265.326z"/><path d="M198.866,102.026c0.9,0,1.8-0.1,2.6-0.4c4.8-1.5,7.5-6.5,6.1-11.3c-1.5-4.8-6.5-7.5-11.3-6.1s-7.5,6.5-6.1,11.3 C191.466,99.426,195.066,102.026,198.866,102.026z"/><path d="M77.366,234.026c-0.3,5,3.5,9.3,8.5,9.6c0.2,0,0.4,0,0.6,0c4.8,0,8.7-3.7,9-8.5c0.3-5-3.5-9.3-8.5-9.6 S77.666,229.026,77.366,234.026z"/><path d="M262.466,96.326c4.5,0,8.5-3.4,9-8c0.6-5-3-9.5-8-10c-5-0.6-9.5,3-10,8c-0.6,5,3,9.5,8,10 C261.666,96.326,262.066,96.326,262.466,96.326z"/><path d="M293.666,103.126c3.8,0,7.4-2.4,8.6-6.2c1.6-4.8-1-9.9-5.8-11.4c-4.8-1.6-9.9,1-11.4,5.8c-1.6,4.8,1,9.9,5.8,11.4 C291.766,103.026,292.766,103.126,293.666,103.126z"/><path d="M122.166,345.626c-3.7,3.4-3.9,9.1-0.5,12.8c1.8,1.9,4.2,2.9,6.6,2.9c2.2,0,4.4-0.8,6.1-2.4c3.7-3.4,3.9-9.1,0.5-12.8 C131.566,342.426,125.766,342.226,122.166,345.626z"/><path d="M136.966,116.226c-3.8,3.2-4.4,8.9-1.1,12.8c1.8,2.1,4.4,3.2,6.9,3.2c2.1,0,4.1-0.7,5.8-2.1c3.8-3.2,4.4-8.9,1.1-12.8 C146.566,113.526,140.766,113.026,136.966,116.226z"/><path d="M318.466,114.926c1.4,0.8,3,1.2,4.5,1.2c3.1,0,6.2-1.7,7.9-4.6c2.5-4.4,1-9.9-3.4-12.4s-9.9-1-12.4,3.4 S314.166,112.426,318.466,114.926L318.466,114.926z"/><path d="M95.366,306.726c1,0,2-0.2,3-0.5c4.7-1.7,7.2-6.9,5.5-11.6s-6.9-7.2-11.6-5.5s-7.2,6.9-5.5,11.6 C88.066,304.426,91.566,306.726,95.366,306.726z"/><path d="M165.066,97.226c-4.4,2.4-6.1,7.9-3.7,12.3c1.7,3,4.8,4.8,8,4.8c1.4,0,2.9-0.3,4.3-1.1c4.4-2.4,6.1-7.9,3.7-12.3 S169.466,94.826,165.066,97.226z"/><path d="M171.866,385.626c-2,4.6,0,9.9,4.6,12c1.2,0.5,2.4,0.8,3.7,0.8c3.5,0,6.8-2,8.3-5.4c2-4.6,0-9.9-4.6-11.9 C179.266,378.926,173.866,381.026,171.866,385.626z"/><path d="M157.666,366.026c-4.1-2.9-9.7-2-12.6,2.1c-2.9,4.1-2,9.7,2.1,12.6c1.6,1.1,3.4,1.7,5.3,1.7c2.8,0,5.6-1.3,7.4-3.8 C162.666,374.526,161.666,368.926,157.666,366.026z"/><path d="M210.566,408.326c4.2,0,7.9-2.9,8.8-7.1c1.1-4.9-2-9.7-6.9-10.8l0,0c-4.9-1.1-9.7,2-10.8,6.9s2,9.7,6.9,10.8l0,0 C209.266,408.226,209.966,408.326,210.566,408.326z"/><path d="M126.066,139.026c-3.9-3.1-9.6-2.5-12.7,1.5c-3.1,3.9-2.5,9.6,1.5,12.7c1.7,1.3,3.6,2,5.6,2c2.7,0,5.3-1.2,7.1-3.4 C130.666,147.826,129.966,142.126,126.066,139.026z"/><path d="M351.466,348.726c-3.5,3.6-3.4,9.3,0.2,12.8c1.8,1.7,4,2.6,6.3,2.6c2.4,0,4.7-0.9,6.5-2.7c3.5-3.6,3.4-9.3-0.2-12.8 C360.666,345.026,354.966,345.126,351.466,348.726z"/><path d="M365.366,141.926c-4,3-4.8,8.7-1.8,12.7c1.8,2.4,4.5,3.6,7.2,3.6c1.9,0,3.8-0.6,5.5-1.8c4-3,4.8-8.7,1.8-12.7 S369.366,138.926,365.366,141.926z"/><path d="M383.566,168.326c-4.5,2.1-6.4,7.6-4.3,12.1c1.6,3.3,4.8,5.2,8.2,5.2c1.3,0,2.6-0.3,3.9-0.9c4.5-2.2,6.4-7.6,4.3-12.1 C393.466,168.126,388.066,166.226,383.566,168.326z"/><path d="M107.266,165.026c-4.5-2.3-9.9-0.5-12.2,4c-2.3,4.5-0.5,9.9,4,12.2c1.3,0.7,2.7,1,4.1,1c3.3,0,6.5-1.8,8.1-5 C113.566,172.726,111.766,167.226,107.266,165.026z"/><path d="M342.266,119.726c-3.3,3.8-2.9,9.5,0.8,12.8c1.7,1.5,3.9,2.3,6,2.3c2.5,0,5-1,6.8-3.1c3.3-3.8,2.9-9.5-0.8-12.8 C351.266,115.526,345.566,115.926,342.266,119.726z"/><path d="M82.966,200.626c-1.3,4.8,1.5,9.8,6.4,11.1c0.8,0.2,1.6,0.3,2.4,0.3c4,0,7.6-2.7,8.7-6.7c1.3-4.8-1.5-9.8-6.4-11.1 C89.266,192.926,84.266,195.726,82.966,200.626z"/><path d="M328.366,368.126c-4.1,2.8-5.2,8.4-2.4,12.6c1.8,2.6,4.6,4,7.5,4c1.8,0,3.5-0.5,5.1-1.6c4.1-2.8,5.2-8.4,2.4-12.6 S332.466,365.326,328.366,368.126z"/><path d="M392.266,310.326c3.6,0,7.1-2.2,8.5-5.8c1.8-4.7-0.5-9.9-5.2-11.7c-4.7-1.8-9.9,0.5-11.7,5.2c-1.8,4.7,0.5,9.9,5.2,11.7 C390.066,310.126,391.166,310.326,392.266,310.326z"/><path d="M409.666,271.926c0.8-4.9-2.5-9.6-7.5-10.4c-4.9-0.8-9.6,2.5-10.4,7.5s2.5,9.6,7.5,10.4c0.5,0.1,1,0.1,1.5,0.1 C405.066,279.426,408.866,276.326,409.666,271.926z"/><path d="M109.066,335.726c1.6,0,3.2-0.4,4.7-1.3c4.3-2.6,5.7-8.2,3.1-12.4c-2.6-4.3-8.2-5.7-12.4-3.1c-4.3,2.6-5.7,8.2-3.1,12.4 C102.966,334.126,105.966,335.726,109.066,335.726z"/><path d="M382.766,322.226c-4.2-2.7-9.8-1.4-12.5,2.8c-2.7,4.2-1.5,9.8,2.8,12.5c1.5,1,3.2,1.4,4.9,1.4c3,0,5.9-1.5,7.6-4.2 C388.166,330.526,386.966,324.926,382.766,322.226z"/><path d="M272.666,391.226c-4.9,0.9-8.1,5.7-7.2,10.6c0.8,4.3,4.6,7.4,8.9,7.4c0.6,0,1.1-0.1,1.7-0.2c4.9-0.9,8.1-5.7,7.2-10.6 C282.266,393.426,277.566,390.226,272.666,391.226z"/><path d="M301.766,382.426c-0.1,0-0.1,0-0.2,0.1l0,0c-4.6,1.9-6.8,7.2-4.9,11.8c1.4,3.5,4.8,5.6,8.4,5.6c1.1,0,2.3-0.2,3.4-0.7 c0.1,0,0.1-0.1,0.2-0.1l0,0c4.6-1.9,6.8-7.2,4.9-11.8S306.366,380.526,301.766,382.426z"/><path d="M396.066,197.926c-4.9,1.2-7.8,6.1-6.6,11c1,4.1,4.7,6.9,8.8,6.9c0.7,0,1.5-0.1,2.2-0.3c4.9-1.2,7.8-6.1,6.6-11 S400.866,196.726,396.066,197.926z"/><path d="M402.366,229.326c-5,0.2-8.9,4.4-8.7,9.4c0.2,4.9,4.2,8.7,9,8.7c0.1,0,0.2,0,0.4,0c5-0.2,8.9-4.4,8.7-9.4 S407.366,229.226,402.366,229.326z"/><path d="M241.666,0.226c-65.3,0.8-126.4,26.9-172,73.6c-32.7,33.4-55,75.2-64.5,120.7c-9.2,44.3-6.1,90.3,9.2,132.8 c1.3,3.7,4.8,6,8.5,6c1,0,2-0.2,3.1-0.5c4.7-1.7,7.2-6.9,5.5-11.6c-29.5-82.3-9.9-172.3,51.1-234.8 c42.2-43.2,98.8-67.4,159.2-68.1c60.4-0.6,117.5,22.2,160.8,64.4l1.4,1.3l-27.4,0.3c-5,0.1-9,4.2-9,9.2c0.1,5,4.1,9,9.1,9h0.1 l49.2-0.6c5-0.1,9-4.2,9-9.2l-0.5-49.2c-0.1-5-4.1-8.9-9.2-9c-5,0.1-9,4.2-9,9.2l0.3,27.4l-1.4-1.3 C368.566,24.126,306.966-0.574,241.666,0.226z"/><path d="M86.266,406.426l-1.4-1.3l27.4-0.3c5-0.1,9-4.2,9-9.2s-4.2-8.9-9.2-9l-49.2,0.6c-5,0.1-9,4.2-9,9.2l0.6,49.2 c0.1,5,4.1,9,9.1,9h0.1c5-0.1,9-4.2,9-9.2l-0.3-27.4l1.4,1.3c47.5,46.4,109.1,69.5,170.8,69.5c63.5,0,127-24.6,174.8-73.5 c32.7-33.4,55-75.2,64.5-120.7c9.2-44.3,6.1-90.3-9.2-132.8c-1.7-4.7-6.9-7.2-11.6-5.5s-7.2,6.9-5.5,11.6 c29.5,82.3,9.9,172.3-51.1,234.8C319.066,491.926,175.566,493.626,86.266,406.426z"/><path d="M174.866,176.626c-2,2.1-3.2,4.9-3.2,7.9c0,2.8,1,4.8,1.5,5.9l65,143.9c2.8,6.2,7.4,7.6,10.8,7.6c0.1,0,0.5,0,0.6,0 c3.3-0.2,7.8-1.7,10.3-8l7.3-18.2c4.4-11.1,8.9-22.1,13.3-33.2c12.3-4.9,24.5-9.8,36.8-14.7l14.8-5.9c6.9-2.8,8-7.9,8-10.7 c0-3.4-1.2-8-7.5-10.8c-34-15.4-67.9-30.9-101.9-46.3l-33-15c-3.3-1.5-6.6-3-9.9-4.5 C183.166,172.426,178.066,173.326,174.866,176.626z M223.066,210.426c29.4,13.4,58.8,26.8,88.3,40.2l-0.9,0.3 c-13.4,5.4-26.9,10.8-40.3,16.1c-2.3,0.9-4.2,2.8-5.1,5.1c-4.9,12.3-9.8,24.5-14.7,36.8l-1.8,4.4l-51.9-114.8L223.066,210.426z"/></symbol><symbol id="social-media-1" viewBox="0 0 409.602 409.602"><title>social-media-1</title><g> <path d="M349.617,59.988C310.938,21.305,259.504,0,204.801,0S98.672,21.305,59.988,59.988C21.305,98.672,0,150.098,0,204.801 c0,54.711,21.305,106.14,59.988,144.82c38.68,38.68,90.11,59.981,144.813,59.981c54.707,0,106.137-21.301,144.816-59.981 c38.68-38.68,59.985-90.109,59.985-144.82C409.602,150.098,388.297,98.668,349.617,59.988L349.617,59.988z M340.566,340.57 c-36.261,36.262-84.476,56.231-135.765,56.231c-51.285,0-99.5-19.969-135.762-56.231c-36.266-36.261-56.238-84.48-56.238-135.769 c0-51.281,19.972-99.496,56.238-135.762s84.481-56.238,135.762-56.238c51.285,0,99.5,19.972,135.765,56.238 c36.262,36.262,56.235,84.477,56.235,135.762C396.801,256.094,376.828,304.309,340.566,340.57L340.566,340.57z M340.566,340.57"/> <path d="M344.031,91.977c-2.226-2.747-6.258-3.168-9.004-0.938c-2.746,2.227-3.164,6.258-0.937,9 c23.93,29.496,37.109,66.699,37.109,104.762c0,44.453-17.308,86.242-48.734,117.668c-31.426,31.426-73.215,48.73-117.664,48.73 c-41.008,0-80.406-15.043-110.93-42.363c-2.637-2.359-6.68-2.133-9.039,0.5c-2.355,2.633-2.133,6.68,0.5,9.035 C118.211,367.797,160.637,384,204.801,384c47.867,0,92.871-18.637,126.715-52.48C365.359,297.676,384,252.672,384,204.801 C384,163.812,369.805,123.746,344.031,91.977L344.031,91.977z M344.031,91.977"/> <path d="M38.398,204.801c0-91.754,74.649-166.403,166.403-166.403c41.008,0,80.402,15.047,110.929,42.368 c2.633,2.359,6.68,2.132,9.036-0.5c2.359-2.633,2.132-6.68-0.5-9.036c-32.875-29.425-75.305-45.628-119.465-45.628 c-47.863,0-92.863,18.64-126.711,52.488c-33.848,33.847-52.488,78.847-52.488,126.711c0,40.992,14.195,81.062,39.968,112.828 c1.266,1.562,3.11,2.371,4.973,2.371c1.418,0,2.844-0.469,4.031-1.434c2.742-2.226,3.164-6.257,0.938-9 C51.578,280.07,38.398,242.863,38.398,204.801L38.398,204.801z M38.398,204.801"/> </g><g> <path d="M258.59,102.125h-107.18c-27.176,0-49.285,22.11-49.285,49.286v107.179c0,27.177,22.109,49.286,49.285,49.286h107.18 c27.176,0,49.284-22.109,49.284-49.286V151.411C307.874,124.235,285.766,102.125,258.59,102.125z M294.898,258.589 c0,20.02-16.288,36.309-36.308,36.309h-107.18c-20.019,0-36.305-16.289-36.305-36.309V151.411 c0-20.019,16.287-36.305,36.305-36.305h107.18c20.02,0,36.308,16.287,36.308,36.305V258.589z"/> <path d="M262.503,139.728c-4.358,0-7.904,3.545-7.904,7.901c0,4.356,3.546,7.9,7.904,7.9c4.356,0,7.9-3.544,7.9-7.9 C270.403,143.273,266.859,139.728,262.503,139.728z"/> <path d="M204.998,154.57c-27.806,0-50.428,22.622-50.428,50.428c0,27.808,22.622,50.432,50.428,50.432 c27.808,0,50.432-22.624,50.432-50.432C255.43,177.192,232.806,154.57,204.998,154.57z M204.998,242.454 c-20.652,0-37.453-16.803-37.453-37.456c0-20.648,16.801-37.446,37.453-37.446c20.65,0,37.449,16.798,37.449,37.446 C242.448,225.651,225.648,242.454,204.998,242.454z"/> </g></symbol><symbol id="social-media" viewBox="0 0 512 512"><title>social-media</title><path d="M222.892,388h51.491c4.418,0,8-3.582,8-8V264.093h26.751c4.101,0,7.538-3.101,7.958-7.18l4.51-43.772 c0.232-2.252-0.501-4.498-2.019-6.179c-1.517-1.682-3.675-2.641-5.939-2.641h-31.261v-17.73c0-3.662,1.159-3.936,2.928-3.936 h27.682c4.418,0,8-3.582,8-8v-42.5c0-4.406-3.562-7.982-7.968-8L274.848,124c-26.752,0-41.029,11.77-48.295,21.643 c-10.146,13.787-11.661,29.941-11.661,38.343v20.334h-16.489c-4.418,0-8,3.582-8,8v43.772c0,4.418,3.582,8,8,8h16.489V380 C214.892,384.418,218.473,388,222.892,388z M206.402,248.093v-27.772h16.489c4.418,0,8-3.582,8-8v-28.334 c0-5.185,0.833-18.376,8.547-28.86c7.386-10.037,19.3-15.126,35.376-15.126l30.177,0.122v26.533h-19.682 c-9.421,0-18.928,6.164-18.928,19.936v25.73c0,4.418,3.582,8,8,8h30.395l-2.862,27.772h-27.533c-4.418,0-8,3.582-8,8V372h-35.491 V256.093c0-4.418-3.582-8-8-8H206.402z"/><path d="M437.022,74.984C388.67,26.63,324.381,0,256,0C187.624,0,123.338,26.63,74.984,74.984S0,187.624,0,256 c0,68.388,26.63,132.678,74.984,181.028C123.335,485.375,187.621,512,256,512c68.385,0,132.673-26.625,181.021-74.972 C485.372,388.679,512,324.389,512,256C512,187.622,485.372,123.336,437.022,74.984z M425.708,425.714 C380.381,471.039,320.111,496,256,496c-64.106,0-124.374-24.961-169.703-70.286C40.965,380.386,16,320.113,16,256 c0-64.102,24.965-124.37,70.297-169.702C131.63,40.965,191.898,16,256,16c64.108,0,124.378,24.965,169.708,70.297 C471.037,131.628,496,191.896,496,256C496,320.115,471.037,380.387,425.708,425.714z"/><path d="M430.038,114.969c-2.784-3.432-7.821-3.957-11.253-1.172c-3.431,2.784-3.956,7.822-1.172,11.252 C447.526,161.919,464,208.425,464,256c0,55.567-21.635,107.803-60.919,147.086C363.797,442.367,311.563,464,256,464 c-51.26,0-100.505-18.807-138.663-52.956c-3.292-2.946-8.35-2.666-11.296,0.626c-2.946,3.292-2.666,8.35,0.626,11.296 C147.763,459.745,200.797,480,256,480c59.837,0,116.089-23.297,158.394-65.601C456.701,372.094,480,315.84,480,256 C480,204.766,462.256,154.681,430.038,114.969z"/><path d="M48,256c0-114.691,93.309-208,208-208c51.26,0,100.504,18.808,138.662,52.959c3.293,2.948,8.351,2.666,11.296-0.625 c2.947-3.292,2.667-8.35-0.625-11.296C364.237,52.256,311.203,32,256,32c-59.829,0-116.079,23.301-158.389,65.611 C55.301,139.92,32,196.171,32,256c0,51.24,17.744,101.328,49.963,141.038c1.581,1.949,3.889,2.96,6.217,2.96 c1.771,0,3.553-0.585,5.036-1.788c3.431-2.784,3.956-7.822,1.172-11.253C64.474,350.088,48,303.58,48,256z"/></symbol><symbol id="planet" viewBox="0 0 467.071 467.071"><title>planet</title><polygon style="fill:#808083;" points="240.688,443.831 219.84,368.545 204.786,368.545 183.938,443.831 134.859,443.831 134.859,467.071 289.766,467.071 289.766,443.831 "/><polygon style="opacity:0.3;fill:#5B5B5F;enable-background:new ;" points="289.767,443.831 240.688,443.831 219.84,368.545 212.313,368.545 212.313,467.071 289.767,467.071 "/><circle style="fill:#5F95DD;" cx="212.313" cy="166.222" r="159.149"/><path style="fill:#ABCB57;" d="M258.318,50.313c-1.102,1.427-2.241,2.935-2.522,4.716c-0.459,2.907,1.452,5.602,3.26,7.924 c2.744,3.525,5.812,7.269,10.147,8.35c8.079,2.014,15.309-6.074,23.609-6.74c6.665-0.535,12.851,3.795,19.533,4.037 c7.581,0.275,11.497-6.948,13.03-14.377C313.199,41.932,299.033,31.62,283.4,23.802C277.307,31.689,264.41,42.428,258.318,50.313z"/><path style="fill:#ABCB57;" d="M364.161,118.446c-2.941,8.971-11.209,6.597-21.931,7.422c-13.767,1.059-22.133-5.711-34.849-8.238 c-11.801-2.346-22.172,5.782-27.686,15.567c-4.094,7.264-10.509,23.341-5.121,30.762c2.575,3.546,6.439,5.894,10.198,8.147 c5.412,3.244,10.851,6.501,16.702,8.862c6.727,2.714,14.446,4.571,18.725,10.428c3.524,4.823,3.809,11.274,3.197,17.216 c-1.662,16.131-15.71,30.448-2.884,45.104c4.819,5.507,11.378,8.553,18.696,8.56c20.239-26.696,32.256-59.969,32.256-96.054 C371.462,149.575,368.902,133.528,364.161,118.446z"/><path style="fill:#ABCB57;" d="M219.729,39.468c5.778,2.633,13.046,0.152,17.038-4.786c3.992-4.938,7.682-18.263,6.748-24.545 c-10.091-2.006-20.523-3.067-31.203-3.067c-2.834,0-5.649,0.077-8.447,0.223c1.907,5.841,5.3,10.909,6.324,16.976 C211.226,30.414,214.059,36.884,219.729,39.468z"/><path style="fill:#ABCB57;" d="M86.971,122.562c7.74,8.149,16.255,15.561,25.393,22.103c2.508,1.796,5.217,3.723,6.213,6.643 c2.898,8.488-2.078,17.652,2.993,27.327c4.794,9.148,15.382,14.854,18.119,24.812c2.135,7.767-1.147,16.198,0.708,24.038 c2.249,9.508,11.43,15.926,14.746,25.117c2.11,5.847,1.659,12.313,3.2,18.335s6.395,12.162,12.585,11.596 c7.479-0.683,10.551-9.903,11.135-17.391c0.585-7.487,1.352-16.517,8.056-19.902c3.566-1.8,8.224-1.521,11.014-4.379 c4.637-4.749-0.027-12.528,0.132-19.164c0.17-7.073,5.988-12.545,11.368-17.14c6.779-5.79,13.558-11.581,20.336-17.371 c4.708-3.981,5.911-11.11,3.979-16.965c-1.931-5.855-6.491-10.528-11.621-13.947c-5.517-3.678-12.622-6.15-18.743-3.6 c-4.659,1.941-8.263,6.59-13.302,6.881c-4.647,0.268-8.656-3.421-10.885-7.508c-2.228-4.087-3.28-8.736-5.538-12.806 c-6.485-11.685-16.98-10.973-28.298-12.723c-11.426-1.767-23.047-7.102-31.562-14.909c-1.364-1.251-2.717-2.642-3.258-4.412 c-3.027-9.904,14.515-14.286,20.581-14.086c4.974,0.163,10.049,1.614,14.84,0.271c4.523-1.267,7.983-4.799,11.827-7.498 c10.879-7.639,26.778,2.777,28.882-17.886c0.824-8.093-2.308-16.007-5.381-23.54c-4.455-10.922-8.463-21.281-11.388-32.514 C127.837,23.413,90.31,54.281,69.872,95.181c5.441,5.856,3.847,3.12,6.129,10.79C77.91,112.387,82.361,117.709,86.971,122.562z"/><path style="fill:#59595A;" d="M366.765,25.911l11.769-11.77L364.391,0l-37.343,37.343l14.143,14.142l11.412-11.412 c31.267,34.688,48.376,79.102,48.376,126.149c0,50.395-19.625,97.772-55.26,133.407c-71.189,71.189-185.581,73.48-259.555,6.883 l11.413-11.413l-14.143-14.143L46.092,318.3l14.143,14.143l11.774-11.774c39.671,36.081,89.979,54.125,140.305,54.121 c53.428-0.005,106.874-20.345,147.549-61.019c39.412-39.412,61.117-91.813,61.117-147.549 C420.979,113.83,401.798,64.39,366.765,25.911z"/><path style="opacity:0.3;fill:#5B5B5F;enable-background:new ;" d="M324.849,53.685L99.777,278.757 c62.152,62.152,162.92,62.152,225.072,0S387.001,115.837,324.849,53.685z"/></symbol><symbol id="cup" viewBox="0 0 56 56"><title>cup</title><g> <path style="fill:#DAE7EF;" d="M40.753,20.669L38.02,2.63c-0.015,0.003-0.028,0.009-0.042,0.012C37.983,2.668,38,2.695,38,2.722 C38,3.827,33.523,4.5,28,4.5S18,3.827,18,2.722c0-0.016,0.008-0.032,0.014-0.048c-0.013-0.007-0.024-0.015-0.037-0.022 l-2.73,18.017C14.065,28.474,20.107,35.5,28,35.5S41.935,28.474,40.753,20.669z"/> <path style="fill:#BBD7EA;" d="M28,36c-3.908,0-7.611-1.699-10.159-4.663c-2.548-2.963-3.674-6.879-3.088-10.743l2.73-18.017 c0.024-0.162,0.127-0.302,0.274-0.374c0.147-0.073,0.321-0.067,0.464,0.013c0.181,0.102,0.304,0.316,0.286,0.521 C18.749,3.123,21.423,4,28,4c6.477,0,9.169-0.85,9.484-1.272c-0.021-0.125,0.005-0.254,0.075-0.36 c0.074-0.112,0.19-0.19,0.323-0.217c0.134-0.028,0.292-0.003,0.405,0.075c0.112,0.079,0.207,0.194,0.227,0.329l2.733,18.039 c0.586,3.864-0.54,7.78-3.088,10.743C35.611,34.301,31.908,36,28,36z M18.314,3.763l-2.573,16.981 c-0.542,3.575,0.5,7.199,2.858,9.941S24.383,35,28,35s7.043-1.572,9.401-4.314s3.399-6.366,2.858-9.941L37.686,3.763 C35.686,4.859,30.515,5,28,5S20.314,4.859,18.314,3.763z"/> </g><g> <ellipse style="fill:#DAE7EF;" cx="28" cy="53" rx="11" ry="2.5"/> <path style="fill:#BBD7EA;" d="M28,56c-3.978,0-11.5-0.627-11.5-3s7.522-3,11.5-3s11.5,0.627,11.5,3S31.978,56,28,56z M28,51 c-6.794,0-10.5,1.321-10.5,2s3.706,2,10.5,2s10.5-1.321,10.5-2S34.794,51,28,51z"/> </g><path style="fill:#BBD7EA;" d="M28,52.5c-0.552,0-1-0.447-1-1V35.359c0-0.553,0.448-1,1-1s1,0.447,1,1V51.5 C29,52.053,28.552,52.5,28,52.5z"/><g> <path style="fill:#DAE7EF;" d="M38,2.722C38,3.827,33.523,4.5,28,4.5S18,3.827,18,2.722S22.477,0.5,28,0.5S38,1.618,38,2.722z"/> <path style="fill:#BBD7EA;" d="M28,5c-3.157,0-10.5-0.222-10.5-2.277C17.5,0.739,23.94,0,28,0s10.5,0.739,10.5,2.723 C38.5,4.778,31.157,5,28,5z M28,1c-5.757,0-9.297,1.151-9.502,1.742C18.686,3.103,21.345,4,28,4c6.53,0,9.213-0.864,9.492-1.283 C37.196,2.118,33.675,1,28,1z M37.502,2.742h0.01H37.502z"/> </g><path style="fill:#701C11;" d="M40.578,19.789L40.578,19.789L40.578,19.789c0-0.179-0.088-0.359-0.256-0.536 c-0.084-0.089-0.188-0.177-0.311-0.263c-1.597-1.13-6.384-2.089-12.043-2.089c-0.424,0-0.843,0.006-1.256,0.016 c-0.134,0.003-0.263,0.01-0.396,0.014c-0.277,0.009-0.553,0.018-0.824,0.032c-0.157,0.008-0.308,0.019-0.463,0.028 c-0.24,0.014-0.481,0.029-0.716,0.046c-0.165,0.012-0.324,0.028-0.485,0.042c-0.216,0.019-0.432,0.037-0.642,0.059 c-0.168,0.017-0.331,0.037-0.495,0.056c-0.195,0.022-0.39,0.044-0.579,0.069c-0.167,0.022-0.329,0.045-0.491,0.068 c-0.176,0.025-0.352,0.051-0.523,0.078c-0.164,0.026-0.322,0.053-0.48,0.081c-0.159,0.028-0.316,0.056-0.469,0.085 c-0.159,0.03-0.313,0.062-0.465,0.094c-0.139,0.029-0.276,0.059-0.409,0.089c-0.155,0.035-0.305,0.071-0.452,0.108 c-0.118,0.03-0.234,0.06-0.347,0.09c-0.147,0.04-0.29,0.08-0.428,0.121c-0.1,0.03-0.196,0.06-0.292,0.091 c-0.137,0.044-0.269,0.088-0.396,0.133c-0.082,0.029-0.159,0.059-0.236,0.089c-0.125,0.048-0.247,0.097-0.36,0.147 c-0.063,0.028-0.12,0.056-0.179,0.084c-0.112,0.053-0.22,0.106-0.318,0.16c-0.046,0.025-0.085,0.051-0.127,0.077 c-0.096,0.058-0.189,0.116-0.267,0.174c-0.029,0.022-0.05,0.043-0.077,0.065c-0.077,0.063-0.152,0.127-0.208,0.191 c-0.013,0.015-0.021,0.031-0.033,0.046c-0.122,0.151-0.198,0.303-0.198,0.455c0,0.019,0.012,0.037,0.014,0.056l0-0.001 l-0.125,0.825C14.065,28.474,20.107,35.5,28,35.5s13.935-7.026,12.753-14.831L40.578,19.789z"/><path style="fill:#60140F;" d="M40.578,19.789c0,1.436-5.646,2.311-12.61,2.311s-12.61-0.875-12.61-2.311s5.646-2.889,12.61-2.889 S40.578,18.353,40.578,19.789z"/></symbol></svg>