<svg viewBox="0 0 512.003 512.003" xmlns="http://www.w3.org/2000/svg"><path d="m221.155 24.442c-7.403-7.402-18.816-8.347-27.244-2.836-2.063-9.855-10.802-17.259-21.27-17.259s-19.207 7.403-21.27 17.259c-8.428-5.51-19.842-4.566-27.244 2.836-8.488 8.489-8.488 22.25 0 30.737a21.638 21.638 0 0 0 6.793 4.602h83.443a21.689 21.689 0 0 0 6.793-4.602c8.486-8.487 8.486-22.248-.001-30.737z" fill="#ff4c1c"/><path d="m381.708 132.486-36.283 85.159-116.855-39.487v-80.748c0-30.889-25.041-55.931-55.931-55.931s-55.931 25.041-55.931 55.931v43.226l-32.541 95.656c0 79.002 56.72 144.747 131.656 158.759 0 16.489 13.356 29.845 29.832 29.845s29.832-13.356 29.832-29.832c72.459-13.515 127.893-75.398 131.527-150.879l.13-.135v-86.128c0-14.05-11.388-25.436-25.436-25.436z" fill="#ffdba5"/><path d="m170.879 193.083a91.753 91.753 0 0 0 -7.881 37.275c0 50.866 41.235 92.102 92.101 92.102 43.478 0 79.895-30.137 89.564-70.653z" fill="#ffc778"/><path d="m426.53 213.34a8.696 8.696 0 0 0 0-17.392h-9.384v-15.151h9.384a8.696 8.696 0 0 0 0-17.392h-9.384v-1.139c0-18.819-15.311-34.13-34.131-34.13a8.695 8.695 0 0 0 -8 5.287l-33.128 77.752-103.316-34.913v-74.507c0-13.09-3.923-25.276-10.64-35.465.223-.209.461-.399.678-.616 11.865-11.865 11.865-31.169 0-43.033-7.629-7.629-18.614-10.461-28.69-8.043-5.416-8.831-15.183-14.598-25.972-14.598s-20.557 5.767-25.974 14.598c-10.076-2.413-21.061.416-28.69 8.044-11.865 11.865-11.865 31.169 0 43.033.217.217.454.408.677.616-6.716 10.19-10.639 22.375-10.639 35.465v12.836h-21.234a8.696 8.696 0 0 0 0 17.392h29.93a8.696 8.696 0 0 0 8.696-8.696v-21.53c0-26.045 21.19-47.235 47.235-47.235s47.234 21.19 47.234 47.235v80.748a8.697 8.697 0 0 0 5.912 8.238l116.855 39.488a8.7 8.7 0 0 0 10.784-4.829l33.654-78.988c6.604 2.242 11.369 8.503 11.369 15.855v1.139h-5.406a8.696 8.696 0 0 0 0 17.392h5.406v15.151h-5.406a8.696 8.696 0 0 0 0 17.392h5.406v15.151h-5.406a8.696 8.696 0 0 0 0 17.392h5.406v1.147a8.682 8.682 0 0 0 -.121 1.084c-3.418 71.02-54.589 129.721-124.436 142.75a8.697 8.697 0 0 0 -7.101 8.549c0 11.654-9.481 21.136-21.136 21.136s-21.137-9.481-21.137-21.15a8.696 8.696 0 0 0 -7.098-8.547c-71.708-13.407-123.88-75.859-124.553-148.792l32.072-94.274a8.695 8.695 0 0 0 -8.231-11.496h-16.051a8.696 8.696 0 0 0 0 17.392h3.906l-28.629 84.154a8.691 8.691 0 0 0 -.463 2.801c0 79.715 55.262 148.492 132.332 165.978 2.846 14.976 14.389 26.908 29.156 30.329v66.36a8.696 8.696 0 0 0 17.392 0v-66.359c14.764-3.42 26.304-15.345 29.153-30.317 34.667-7.893 66.458-26.79 90.088-53.681 25.014-28.465 39.911-64.869 42.036-102.647a8.714 8.714 0 0 0 .211-1.904v-2.514h9.384a8.696 8.696 0 0 0 0-17.392h-9.384v-15.151h9.384zm-295.133-160.163c-4.89-5.098-4.836-13.218.183-18.237 4.34-4.341 11.212-5.06 16.338-1.708a8.695 8.695 0 0 0 13.27-5.497c1.255-5.995 6.622-10.346 12.76-10.346s11.504 4.35 12.759 10.344a8.694 8.694 0 0 0 13.27 5.497c5.125-3.352 11.997-2.633 16.338 1.707 5.018 5.018 5.073 13.139.183 18.237-11.377-9.977-26.264-16.045-42.55-16.045s-31.174 6.071-42.551 16.048z"/><path d="m188.608 101.502c0-8.085-6.577-14.662-14.662-14.662s-14.662 6.577-14.662 14.662 6.577 14.662 14.662 14.662c8.084 0 14.662-6.577 14.662-14.662zm-17.391 0a2.732 2.732 0 0 1 2.729-2.729 2.732 2.732 0 0 1 2.729 2.729 2.732 2.732 0 0 1 -2.729 2.729 2.731 2.731 0 0 1 -2.729-2.729zm-15.608 131.666c0 56.428 45.907 102.335 102.334 102.335 6.471 0 12.948-.609 19.252-1.811a8.696 8.696 0 0 0 6.915-10.168c-.899-4.717-5.458-7.811-10.169-6.915a85.7 85.7 0 0 1 -15.998 1.503c-46.838 0-84.943-38.106-84.943-84.944a8.696 8.696 0 0 0 -17.391 0z"/></svg>