<svg viewBox="0 0 512 512" xmlns="http://www.w3.org/2000/svg"><path d="m381.942 370.418h118.534v133.35h-118.534z" fill="#40a559"/><path d="m500.476 370.418v17.648c-26.944 43.375-68.87 76.476-118.534 92.083v-109.731z" fill="#64c37d"/><path d="m428.039 271.091h-384.138c0-7.156.384-14.213 1.152-21.16a191.319 191.319 0 0 1 6.695-33.365c23.499-79.517 97.089-137.543 184.222-137.543 32.432 0 62.988 8.045 89.789 22.236a175.557 175.557 0 0 1 6.618 3.688c57.204 33.255 95.662 95.199 95.662 166.144z" fill="#c6c5ca"/><path d="m332.377 104.946c-59.157 87.66-159.406 145.292-273.111 145.292-4.763 0-9.494-.099-14.213-.307a191.319 191.319 0 0 1 6.695-33.365c23.499-79.517 97.089-137.543 184.222-137.543 32.432 0 62.988 8.045 89.789 22.236a175.537 175.537 0 0 1 6.618 3.687z" fill="#e0e0e2"/><path d="m200.849 304.566v115.241l32.926-11.524v-103.717z" fill="#acabb1"/><path d="m191.026 422.65 1.589-.577 24.852-9.314-44.605-106.773-38.553 15.043 34.773 78.311z" fill="#d8d7da"/><path d="m423.1 460.965h16.463v16.463h-16.463zm-319.932-224.445c-.001-6.546.62-13.152 1.849-19.633l16.175 3.065a89.092 89.092 0 0 0 -1.562 16.564zm22.044-31.124-15.466-5.644c16.895-46.303 64.789-81.219 111.407-81.219v16.463c-40.051.001-81.297 30.265-95.941 70.4z" fill="#fff"/><path d="m381.942 386.881v90.547h-205.788l-115.241-146.521 26.692-18.11 103.421 109.853 75.949-27.537v-90.547h32.652l44.45 82.315z" fill="#e0e0e2"/><path d="m361.484 386.881c-26.901 42.486-68.19 74.951-117.019 90.547h-68.311l-115.241-146.521 26.692-18.109 103.421 109.852 75.949-27.537v-90.547h32.652l44.45 82.315z" fill="#fff"/><path d="m500.476 362.186h-126.765v16.463h-24.723l-44.45-82.315h-45.794v93.006l-16.737 6.068v-99.074h-49.389v35.588l-15.259-36.526-53.88 21.023 16.724 40.236-51.413-54.608-39.808 27.007 123.174 156.605h201.555v26.341h126.765v-16.463h-110.302v-116.887h110.302zm-291.396 8.232v-57.621h16.463v88.58l-3.396 1.231-13.447-32.19zm-63.941-44.778 23.226-9.062 38.287 91.649-13.344 4.838-21.185-22.502zm35.014 143.556-107.31-136.437 13.578-9.212 71.655 76.109.599 1.441.544-.226 29.524 31.359 86.463-31.347v-88.086h19.51l44.45 82.315h34.545v74.084zm-119.24-403.344h16.463v16.463h-16.463zm0 32.926h16.463v16.463h-16.463zm0 32.926h16.463v16.463h-16.463zm0-98.778h16.463v16.463h-16.463zm32.926-16.463h16.463v16.463h-16.463zm0 65.852h16.463v16.463h-16.463zm0-32.926h16.463v16.463h-16.463zm32.926-16.463h16.463v16.463h-16.463zm0-32.926h16.463v16.463h-16.463z"/><path d="m465.904 279.323v-16.463h-29.267c-3.614-88.934-65.482-163.1-148.39-185.283-3.16-25.744-25.145-45.749-51.728-45.749s-48.568 20.005-51.728 45.749c-82.907 22.182-144.776 96.348-148.39 185.283h-24.877v16.463zm-229.385-231.031c16.109 0 29.751 10.736 34.164 25.427a200.82 200.82 0 0 0 -68.328 0c4.413-14.691 18.055-25.427 34.164-25.427zm-183.655 214.568c4.322-97.562 85.046-175.606 183.655-175.606s179.333 78.044 183.655 175.606z"/></svg>