<svg xmlns="http://www.w3.org/2000/svg" viewBox="0 0 512 512"><path fill="#40a559" d="M381.942 370.418h118.534v133.35H381.942z"/><path d="M500.476 370.418v17.648c-26.944 43.375-68.87 76.476-118.534 92.083V370.418h118.534z" fill="#64c37d"/><path d="M428.039 271.091H43.901c0-7.156.384-14.213 1.152-21.16a191.319 191.319 0 0 1 6.695-33.365C75.247 137.049 148.837 79.023 235.97 79.023c32.432 0 62.988 8.045 89.789 22.236a175.557 175.557 0 0 1 6.618 3.688c57.204 33.255 95.662 95.199 95.662 166.144z" fill="#c6c5ca"/><path d="M332.377 104.946c-59.157 87.66-159.406 145.292-273.111 145.292-4.763 0-9.494-.099-14.213-.307a191.319 191.319 0 0 1 6.695-33.365C75.247 137.049 148.837 79.023 235.97 79.023c32.432 0 62.988 8.045 89.789 22.236a175.537 175.537 0 0 1 6.618 3.687z" fill="#e0e0e2"/><path fill="#acabb1" d="M200.849 304.566v115.241l32.926-11.524V304.566z"/><path fill="#d8d7da" d="M191.026 422.65l1.589-.577 24.852-9.314-44.605-106.773-38.553 15.043 34.773 78.311z"/><path d="M423.1 460.965h16.463v16.463H423.1zM103.168 236.52c-.001-6.546.62-13.152 1.849-19.633l16.175 3.065a89.092 89.092 0 0 0-1.562 16.564l-16.462.004zm22.044-31.124l-15.466-5.644c16.895-46.303 64.789-81.219 111.407-81.219v16.463c-40.051.001-81.297 30.265-95.941 70.4z" fill="#fff"/><path fill="#e0e0e2" d="M381.942 386.881v90.547H176.154L60.913 330.907l26.692-18.11L191.026 422.65l75.949-27.537v-90.547h32.652l44.45 82.315z"/><path d="M361.484 386.881c-26.901 42.486-68.19 74.951-117.019 90.547h-68.311L60.913 330.907l26.692-18.109L191.026 422.65l75.949-27.537v-90.547h32.652l44.45 82.315h17.407z" fill="#fff"/><path d="M500.476 362.186H373.711v16.463h-24.723l-44.45-82.315h-45.794v93.006l-16.737 6.068v-99.074h-49.389v35.588l-15.259-36.526-53.88 21.023 16.724 40.236-51.413-54.608-39.808 27.007 123.174 156.605h201.555V512h126.765v-16.463H390.174V378.65h110.302v-16.464zm-291.396 8.232v-57.621h16.463v88.58l-3.396 1.231-13.447-32.19h.38zm-63.941-44.778l23.226-9.062 38.287 91.649-13.344 4.838-21.185-22.502-26.984-64.923zm35.014 143.556L72.843 332.759l13.578-9.212 71.655 76.109.599 1.441.544-.226 29.524 31.359 86.463-31.347v-88.086h19.51l44.45 82.315h34.545v74.084H180.153zM60.913 65.852h16.463v16.463H60.913zm0 32.926h16.463v16.463H60.913zm0 32.926h16.463v16.463H60.913zm0-98.778h16.463v16.463H60.913zm32.926-16.463h16.463v16.463H93.839zm0 65.852h16.463v16.463H93.839zm0-32.926h16.463v16.463H93.839zm32.926-16.463h16.463v16.463h-16.463zm0-32.926h16.463v16.463h-16.463z"/><path d="M465.904 279.323V262.86h-29.267c-3.614-88.934-65.482-163.1-148.39-185.283-3.16-25.744-25.145-45.749-51.728-45.749s-48.568 20.005-51.728 45.749C101.884 99.759 40.015 173.925 36.401 262.86H11.524v16.463h454.38zM236.519 48.292c16.109 0 29.751 10.736 34.164 25.427a200.82 200.82 0 0 0-68.328 0c4.413-14.691 18.055-25.427 34.164-25.427zM52.864 262.86c4.322-97.562 85.046-175.606 183.655-175.606s179.333 78.044 183.655 175.606H52.864z"/></svg>