<svg xmlns="http://www.w3.org/2000/svg" viewBox="0 0 470 470" width="512" height="512"><path d="M380 7.5h-30v455h30c16.5 0 30-13.5 30-30v-395c0-16.5-13.5-30-30-30z" fill="#b1786b"/><path d="M331.733 235L380 37.5c0-16.5-13.5-30-30-30h-45l-70 21.097L165 7.5H90c-16.5 0-30 13.5-30 30v395c0 16.5 13.5 30 30 30h260c16.5 0 30-13.5 30-30L331.733 235z" fill="#cb9385"/><path fill="#ccecff" d="M380 37.5v395h-30L300 235l50-197.5z"/><path fill="#5389a9" d="M305 7.5v50h-80l50-50z"/><path fill="#66c6fe" d="M165 7.5h110v50H165z"/><path fill="#fff" d="M90 37.5v395h260v-395z"/><path d="M300 218.005v97h-20c-11.05 0-20-8.95-20-20v-77c0-11.04 8.95-20 20-20s20 8.96 20 20zm-70 28v12c0 16.57-13.43 30-30 30s-30-13.43-30-30v-12h60z" fill="#99d9ff"/><path d="M380 0H90C69.322 0 52.5 16.822 52.5 37.5v395c0 20.678 16.822 37.5 37.5 37.5h290c20.678 0 37.5-16.822 37.5-37.5v-395C417.5 16.822 400.678 0 380 0zM172.5 45h125v17.5c0 4.136-3.364 7.5-7.5 7.5H180c-4.136 0-7.5-3.364-7.5-7.5V45zm125-15h-125V15h125v15zm105 402.5c0 12.407-10.094 22.5-22.5 22.5H90c-12.407 0-22.5-10.093-22.5-22.5v-395C67.5 25.093 77.593 15 90 15h67.5v47.5c0 12.407 10.093 22.5 22.5 22.5h110c12.406 0 22.5-10.093 22.5-22.5V15H380c12.406 0 22.5 10.093 22.5 22.5v395z"/><path d="M380 30h-45c-4.143 0-7.5 3.358-7.5 7.5s3.357 7.5 7.5 7.5h37.5v380h-275V45H135a7.5 7.5 0 0 0 0-15H90a7.5 7.5 0 0 0-7.5 7.5v395A7.5 7.5 0 0 0 90 440h290a7.5 7.5 0 0 0 7.5-7.5v-395A7.5 7.5 0 0 0 380 30z"/><path d="M192.5 294.75v77.245a7.5 7.5 0 0 0 15 0V294.75c17.096-3.484 30-18.635 30-36.745v-60a7.5 7.5 0 0 0-15 0v40.5h-15v-40.5a7.5 7.5 0 0 0-15 0v40.5h-15v-40.5a7.5 7.5 0 0 0-15 0v60c0 18.11 12.904 33.261 30 36.745zm30-41.245v4.5c0 12.407-10.093 22.5-22.5 22.5s-22.5-10.093-22.5-22.5v-4.5h45zm77.5 125.99a7.5 7.5 0 0 0 7.5-7.5v-153.99c0-15.164-12.337-27.5-27.5-27.5s-27.5 12.336-27.5 27.5v77c0 15.164 12.337 27.5 27.5 27.5h12.5v49.49a7.5 7.5 0 0 0 7.5 7.5zm-20-71.99c-6.893 0-12.5-5.607-12.5-12.5v-77c0-6.893 5.607-12.5 12.5-12.5s12.5 5.607 12.5 12.5v89.5H280zm-109.998-142a7.473 7.473 0 0 0 5.084-1.988l16.585-15.305 16.577 15.304a7.5 7.5 0 0 0 10.174.001l16.585-15.305 16.577 15.304a7.503 7.503 0 0 0 10.176 0l16.576-15.303 16.575 15.303a7.501 7.501 0 0 0 10.176-11.021l-21.663-20a7.501 7.501 0 0 0-10.176 0l-16.576 15.303-16.576-15.303a7.502 7.502 0 0 0-10.174-.001l-16.585 15.305-16.577-15.304a7.502 7.502 0 0 0-10.174-.001l-21.673 20a7.5 7.5 0 0 0 5.089 13.011z"/></svg>